<?xml version="1.0" encoding="UTF-8" standalone="no"?>
<!DOCTYPE svg PUBLIC "-//W3C//DTD SVG 1.1//EN" "http://www.w3.org/Graphics/SVG/1.1/DTD/svg11.dtd">
<svg width="100%" height="100%" viewBox="0 0 722 416" version="1.1" xmlns="http://www.w3.org/2000/svg" xmlns:xlink="http://www.w3.org/1999/xlink" xml:space="preserve" xmlns:serif="http://www.serif.com/" style="fill-rule:evenodd;clip-rule:evenodd;stroke-linejoin:round;stroke-miterlimit:2;">
    <g transform="matrix(1,0,0,1,-897.438,-1393)">
        <g id="workmark-logo" serif:id="workmark logo" transform="matrix(0.905445,0,0,0.551379,900.979,624.542)">
            <rect x="-3.911" y="1393.7" width="797.049" height="752.993" style="fill:none;"/>
            <g id="wordmark" transform="matrix(2.08527,0,0,3.42432,-2013.47,-2271.17)">
                <g transform="matrix(3.75796,0,0,3.75796,-5192.74,-415.753)">
                    <path d="M1654.05,413.636C1652.35,413.636 1650.98,413.819 1649.94,414.186C1648.91,414.552 1648.39,415.236 1648.39,416.236C1648.39,416.602 1648.48,416.911 1648.64,417.161C1648.81,417.411 1649.03,417.619 1649.3,417.786C1649.56,417.952 1649.85,418.077 1650.17,418.161C1650.49,418.244 1650.78,418.286 1651.05,418.286C1652.14,418.286 1653.03,417.936 1653.69,417.236C1654.36,416.536 1654.69,415.636 1654.69,414.536L1654.69,413.636L1654.05,413.636ZM1653.94,407.836C1653.94,407.036 1653.67,406.444 1653.12,406.061C1652.57,405.677 1651.85,405.486 1650.94,405.486C1649.88,405.486 1648.87,405.711 1647.92,406.161C1646.97,406.611 1646.13,407.136 1645.39,407.736L1639.64,402.036C1641.25,400.502 1643.14,399.319 1645.35,398.486C1647.55,397.652 1649.81,397.236 1652.14,397.236C1654.64,397.236 1656.71,397.586 1658.35,398.286C1659.98,398.986 1661.27,399.952 1662.22,401.186C1663.17,402.419 1663.84,403.852 1664.22,405.486C1664.6,407.119 1664.8,408.852 1664.8,410.686L1664.8,424.536L1654.35,424.536L1654.35,422.436L1654.25,422.436C1653.58,423.436 1652.63,424.152 1651.39,424.586C1650.16,425.019 1648.96,425.236 1647.8,425.236C1646.76,425.236 1645.7,425.086 1644.62,424.786C1643.54,424.486 1642.55,424.002 1641.67,423.336C1640.79,422.669 1640.06,421.802 1639.5,420.736C1638.93,419.669 1638.64,418.352 1638.64,416.786C1638.64,414.952 1639.12,413.461 1640.07,412.311C1641.02,411.161 1642.23,410.261 1643.69,409.611C1645.16,408.961 1646.8,408.519 1648.62,408.286C1650.44,408.052 1652.21,407.936 1653.94,407.936L1653.94,407.836Z" style="fill:rgb(243,116,32);fill-rule:nonzero;"/>
                    <path d="M1683.85,425.536C1681.61,425.536 1679.56,425.202 1677.69,424.536C1675.83,423.869 1674.21,422.919 1672.85,421.686C1671.48,420.452 1670.41,418.969 1669.64,417.236C1668.88,415.502 1668.5,413.552 1668.5,411.386C1668.5,409.252 1668.89,407.311 1669.67,405.561C1670.45,403.811 1671.55,402.319 1672.94,401.086C1674.35,399.852 1675.99,398.902 1677.87,398.236C1679.75,397.569 1681.8,397.236 1684,397.236C1684.89,397.236 1685.8,397.311 1686.72,397.461C1687.64,397.611 1688.52,397.819 1689.37,398.086C1690.22,398.352 1691,398.652 1691.72,398.986C1692.44,399.319 1693.05,399.686 1693.55,400.086L1687.8,408.386C1687.39,407.919 1686.87,407.561 1686.22,407.311C1685.57,407.061 1684.94,406.936 1684.35,406.936C1683.78,406.936 1683.23,407.027 1682.69,407.211C1682.16,407.394 1681.69,407.677 1681.27,408.061C1680.85,408.444 1680.51,408.911 1680.25,409.461C1679.98,410.011 1679.85,410.652 1679.85,411.386C1679.85,412.119 1679.98,412.761 1680.25,413.311C1680.51,413.861 1680.85,414.311 1681.27,414.661C1681.69,415.011 1682.16,415.277 1682.69,415.461C1683.23,415.644 1683.78,415.736 1684.35,415.736C1685.01,415.736 1685.66,415.611 1686.3,415.361C1686.93,415.111 1687.44,414.769 1687.85,414.336L1693.64,422.436C1692.55,423.302 1691.12,424.036 1689.37,424.636C1687.62,425.236 1685.78,425.536 1683.85,425.536Z" style="fill:rgb(243,116,32);fill-rule:nonzero;"/>
                    <path d="M1711.94,424.536L1711.94,410.736C1711.94,409.402 1711.78,408.436 1711.44,407.836C1711.11,407.236 1710.56,406.936 1709.8,406.936C1709.23,406.936 1708.69,407.202 1708.17,407.736C1707.65,408.269 1707.39,409.219 1707.39,410.586L1707.39,424.536L1695.85,424.536L1695.85,398.236L1707.1,398.236L1707.1,401.136L1707.19,401.136C1707.53,400.702 1707.94,400.277 1708.42,399.861C1708.9,399.444 1709.45,399.061 1710.07,398.711C1710.69,398.361 1711.38,398.077 1712.14,397.861C1712.91,397.644 1713.75,397.536 1714.64,397.536C1716.38,397.536 1717.88,397.844 1719.14,398.461C1720.41,399.077 1721.41,400.036 1722.14,401.336C1723.01,400.269 1724.08,399.369 1725.35,398.636C1726.61,397.902 1728.21,397.536 1730.14,397.536C1732.01,397.536 1733.55,397.902 1734.77,398.636C1735.99,399.369 1736.95,400.286 1737.67,401.386C1738.39,402.486 1738.89,403.677 1739.17,404.961C1739.45,406.244 1739.6,407.436 1739.6,408.536L1739.6,424.536L1728.05,424.536L1728.05,410.536C1728.05,409.102 1727.87,408.144 1727.52,407.661C1727.17,407.177 1726.63,406.936 1725.89,406.936C1725.23,406.936 1724.66,407.244 1724.19,407.861C1723.73,408.477 1723.5,409.386 1723.5,410.586L1723.5,424.536L1711.94,424.536Z" style="fill:rgb(243,116,32);fill-rule:nonzero;"/>
                </g>
                <g transform="matrix(2.55936,0,0,2.55936,-3228.73,194.247)">
                    <path d="M1668.19,397.836L1667.25,403.236C1666.98,404.602 1666.76,405.761 1666.6,406.711C1666.43,407.661 1666.35,408.386 1666.35,408.886C1666.35,409.252 1666.43,409.594 1666.6,409.911C1666.76,410.227 1667.08,410.386 1667.55,410.386C1667.85,410.386 1668.16,410.302 1668.5,410.136C1668.83,409.969 1669.14,409.677 1669.42,409.261C1669.7,408.844 1669.94,408.269 1670.14,407.536C1670.35,406.802 1670.44,405.869 1670.44,404.736C1670.44,402.869 1670.14,401.236 1669.55,399.836C1668.94,398.436 1668.1,397.269 1667.02,396.336C1665.94,395.402 1664.64,394.702 1663.12,394.236C1661.6,393.769 1659.93,393.536 1658.1,393.536C1656.16,393.536 1654.39,393.869 1652.77,394.536C1651.15,395.202 1649.77,396.127 1648.62,397.311C1647.47,398.494 1646.58,399.902 1645.94,401.536C1645.31,403.169 1645,404.936 1645,406.836C1645,408.836 1645.34,410.644 1646.02,412.261C1646.7,413.877 1647.66,415.252 1648.89,416.386C1650.13,417.519 1651.6,418.394 1653.3,419.011C1655,419.627 1656.86,419.936 1658.89,419.936C1660.8,419.936 1662.65,419.636 1664.47,419.036C1666.29,418.436 1667.85,417.602 1669.14,416.536L1672.89,420.786C1669.16,423.886 1664.26,425.436 1658.19,425.436C1655.39,425.436 1652.8,424.977 1650.39,424.061C1648,423.144 1645.92,421.869 1644.17,420.236C1642.42,418.602 1641.05,416.652 1640.07,414.386C1639.09,412.119 1638.6,409.619 1638.6,406.886C1638.6,404.219 1639.11,401.752 1640.14,399.486C1641.18,397.219 1642.58,395.252 1644.35,393.586C1646.11,391.919 1648.17,390.611 1650.52,389.661C1652.87,388.711 1655.38,388.236 1658.05,388.236C1660.48,388.236 1662.81,388.594 1665.05,389.311C1667.28,390.027 1669.24,391.086 1670.92,392.486C1672.6,393.886 1673.94,395.619 1674.94,397.686C1675.94,399.752 1676.44,402.136 1676.44,404.836C1676.44,406.602 1676.2,408.202 1675.72,409.636C1675.24,411.069 1674.54,412.294 1673.62,413.311C1672.7,414.327 1671.58,415.119 1670.25,415.686C1668.91,416.252 1667.39,416.536 1665.69,416.536C1664.36,416.536 1663.24,416.286 1662.32,415.786C1661.4,415.286 1660.76,414.552 1660.39,413.586L1660.3,413.586C1659.93,414.286 1659.26,414.952 1658.3,415.586C1657.33,416.219 1656.11,416.536 1654.64,416.536C1653.51,416.536 1652.49,416.311 1651.57,415.861C1650.65,415.411 1649.87,414.786 1649.22,413.986C1648.57,413.186 1648.07,412.236 1647.72,411.136C1647.37,410.036 1647.19,408.852 1647.19,407.586C1647.19,406.152 1647.41,404.769 1647.85,403.436C1648.28,402.102 1648.89,400.919 1649.69,399.886C1650.5,398.852 1651.47,398.019 1652.62,397.386C1653.77,396.752 1655.06,396.436 1656.5,396.436C1657.8,396.436 1658.83,396.719 1659.6,397.286C1660.36,397.852 1660.85,398.436 1661.05,399.036L1661.14,399.036L1661.39,397.836L1668.19,397.836ZM1657.6,402.386C1657.19,402.386 1656.81,402.527 1656.44,402.811C1656.08,403.094 1655.76,403.469 1655.5,403.936C1655.23,404.402 1655.01,404.936 1654.85,405.536C1654.68,406.136 1654.6,406.752 1654.6,407.386C1654.6,408.252 1654.75,408.969 1655.07,409.536C1655.39,410.102 1655.91,410.386 1656.64,410.386C1657.11,410.386 1657.54,410.236 1657.92,409.936C1658.3,409.636 1658.62,409.252 1658.87,408.786C1659.12,408.319 1659.31,407.802 1659.44,407.236C1659.58,406.669 1659.64,406.102 1659.64,405.536C1659.64,404.669 1659.51,403.927 1659.25,403.311C1658.98,402.694 1658.43,402.386 1657.6,402.386Z" style="fill-rule:nonzero;"/>
                    <path d="M1679.05,406.636C1679.05,403.802 1679.55,401.244 1680.55,398.961C1681.55,396.677 1682.92,394.736 1684.67,393.136C1686.42,391.536 1688.5,390.302 1690.89,389.436C1693.3,388.569 1695.89,388.136 1698.69,388.136C1701.5,388.136 1704.1,388.569 1706.5,389.436C1708.89,390.302 1710.98,391.536 1712.75,393.136C1714.51,394.736 1715.89,396.677 1716.89,398.961C1717.89,401.244 1718.39,403.802 1718.39,406.636C1718.39,409.469 1717.89,412.052 1716.89,414.386C1715.89,416.719 1714.51,418.711 1712.75,420.361C1710.98,422.011 1708.89,423.286 1706.5,424.186C1704.1,425.086 1701.5,425.536 1698.69,425.536C1695.89,425.536 1693.3,425.086 1690.89,424.186C1688.5,423.286 1686.42,422.011 1684.67,420.361C1682.92,418.711 1681.55,416.719 1680.55,414.386C1679.55,412.052 1679.05,409.469 1679.05,406.636ZM1691.69,406.636C1691.69,407.802 1691.87,408.869 1692.22,409.836C1692.57,410.802 1693.05,411.636 1693.67,412.336C1694.29,413.036 1695.03,413.577 1695.89,413.961C1696.76,414.344 1697.69,414.536 1698.69,414.536C1699.69,414.536 1700.62,414.344 1701.47,413.961C1702.32,413.577 1703.06,413.036 1703.69,412.336C1704.33,411.636 1704.82,410.802 1705.17,409.836C1705.52,408.869 1705.69,407.802 1705.69,406.636C1705.69,405.502 1705.52,404.461 1705.17,403.511C1704.82,402.561 1704.33,401.761 1703.69,401.111C1703.06,400.461 1702.32,399.952 1701.47,399.586C1700.62,399.219 1699.69,399.036 1698.69,399.036C1697.69,399.036 1696.76,399.219 1695.89,399.586C1695.03,399.952 1694.29,400.461 1693.67,401.111C1693.05,401.761 1692.57,402.561 1692.22,403.511C1691.87,404.461 1691.69,405.502 1691.69,406.636Z" style="fill-rule:nonzero;"/>
                    <path d="M1735,425.536C1733.56,425.536 1732.15,425.411 1730.77,425.161C1729.39,424.911 1728.05,424.544 1726.77,424.061C1725.49,423.577 1724.28,423.011 1723.14,422.361C1722.01,421.711 1721,420.986 1720.1,420.186L1727.35,412.286C1728.18,413.186 1729.29,413.986 1730.67,414.686C1732.05,415.386 1733.48,415.736 1734.94,415.736C1735.61,415.736 1736.22,415.619 1736.77,415.386C1737.32,415.152 1737.6,414.719 1737.6,414.086C1737.6,413.752 1737.5,413.469 1737.32,413.236C1737.14,413.002 1736.81,412.761 1736.35,412.511C1735.88,412.261 1735.24,411.986 1734.42,411.686C1733.6,411.386 1732.58,411.036 1731.35,410.636C1730.14,410.236 1729,409.761 1727.89,409.211C1726.8,408.661 1725.82,407.986 1724.97,407.186C1724.12,406.386 1723.44,405.427 1722.94,404.311C1722.44,403.194 1722.19,401.852 1722.19,400.286C1722.19,398.086 1722.64,396.219 1723.55,394.686C1724.44,393.152 1725.6,391.894 1727.02,390.911C1728.44,389.927 1730.03,389.219 1731.8,388.786C1733.56,388.352 1735.31,388.136 1737.05,388.136C1739.38,388.136 1741.75,388.586 1744.17,389.486C1746.59,390.386 1748.71,391.686 1750.55,393.386L1743.14,400.936C1742.35,399.936 1741.36,399.177 1740.19,398.661C1739.03,398.144 1737.98,397.886 1737.05,397.886C1736.18,397.886 1735.48,398.011 1734.94,398.261C1734.41,398.511 1734.14,398.919 1734.14,399.486C1734.14,400.019 1734.42,400.419 1734.97,400.686C1735.52,400.952 1736.41,401.286 1737.64,401.686C1738.91,402.086 1740.25,402.552 1741.64,403.086C1743.05,403.619 1744.34,404.311 1745.52,405.161C1746.7,406.011 1747.68,407.052 1748.44,408.286C1749.21,409.519 1749.6,411.052 1749.6,412.886C1749.6,415.019 1749.17,416.877 1748.32,418.461C1747.47,420.044 1746.35,421.361 1744.97,422.411C1743.59,423.461 1742.03,424.244 1740.3,424.761C1738.56,425.277 1736.8,425.536 1735,425.536Z" style="fill-rule:nonzero;"/>
                    <path d="M1770.14,425.536C1767.38,425.536 1764.97,425.152 1762.92,424.386C1760.87,423.619 1759.16,422.569 1757.8,421.236C1756.43,419.902 1755.41,418.327 1754.75,416.511C1754.08,414.694 1753.75,412.736 1753.75,410.636L1753.75,389.136L1765.64,389.136L1765.64,409.336C1765.64,411.036 1766.05,412.361 1766.87,413.311C1767.69,414.261 1768.85,414.736 1770.35,414.736C1771.85,414.736 1773,414.261 1773.82,413.311C1774.64,412.361 1775.05,411.036 1775.05,409.336L1775.05,389.136L1786.89,389.136L1786.89,410.636C1786.89,412.736 1786.54,414.694 1785.82,416.511C1785.1,418.327 1784.05,419.902 1782.64,421.236C1781.25,422.569 1779.5,423.619 1777.42,424.386C1775.34,425.152 1772.91,425.536 1770.14,425.536Z" style="fill-rule:nonzero;"/>
                </g>
            </g>
        </g>
    </g>
</svg>
